<?xml version="1.0" standalone="no"?>
<!DOCTYPE svg PUBLIC "-//W3C//DTD SVG 20010904//EN"
 "http://www.w3.org/TR/2001/REC-SVG-20010904/DTD/svg10.dtd">
<svg version="1.0" xmlns="http://www.w3.org/2000/svg"
 width="512.000000pt" height="512.000000pt" viewBox="0 0 512.000000 512.000000"
 preserveAspectRatio="xMidYMid meet">
<metadata>
Created by potrace 1.11, written by Peter Selinger 2001-2013
</metadata>
<g transform="translate(0.000000,512.000000) scale(0.100000,-0.100000)"
fill="#000000" stroke="none">
<path d="M1700 5008 c-53 -15 -779 -436 -823 -477 -21 -20 -44 -45 -50 -56 -9
-14 -13 -150 -17 -460 l-5 -439 -358 -206 c-197 -114 -373 -222 -391 -239 -21
-20 -38 -50 -45 -77 -15 -59 -15 -919 0 -978 6 -26 24 -57 44 -76 18 -17 194
-125 391 -239 l359 -207 5 -444 c4 -314 8 -451 17 -465 6 -11 29 -36 50 -56
49 -46 774 -463 832 -479 32 -8 55 -9 87 -1 23 6 202 103 397 216 195 113 360
205 367 205 7 0 172 -92 367 -205 195 -113 374 -210 397 -216 32 -8 55 -7 87
1 58 16 783 433 832 479 21 20 44 45 50 56 9 14 13 151 17 465 l5 444 359 207
c197 114 373 222 391 239 20 19 38 50 44 76 15 59 15 919 0 978 -7 27 -24 57
-45 77 -18 17 -194 125 -391 239 l-358 206 -5 439 c-4 310 -8 446 -17 460 -6
11 -29 36 -50 56 -51 48 -776 464 -834 479 -34 9 -57 9 -87 0 -23 -6 -201
-103 -396 -215 -195 -113 -359 -205 -366 -205 -7 0 -171 92 -366 204 -195 113
-371 210 -391 215 -44 13 -56 13 -103 -1z m395 -481 l320 -185 3 -384 2 -384
-334 -192 -333 -192 -332 191 -331 191 2 386 3 386 325 188 c179 104 332 187
340 184 8 -2 159 -87 335 -189z m1605 5 l325 -188 3 -386 2 -386 -331 -191
-332 -191 -333 192 -334 192 2 384 3 384 325 188 c179 104 330 189 335 189 6
1 156 -84 335 -187z m-2421 -1397 l331 -190 -3 -383 -2 -383 -329 -191 c-250
-145 -333 -188 -345 -181 -9 5 -159 92 -334 192 l-317 183 0 383 0 383 328
190 c180 105 330 189 334 189 4 -1 156 -87 337 -192z m3230 4 l331 -191 0
-383 0 -383 -317 -183 c-175 -100 -325 -187 -334 -192 -12 -7 -95 36 -345 181
l-329 191 -2 383 -3 383 333 192 c182 106 333 192 334 192 0 1 150 -85 332
-190z m-1613 -6 l324 -187 -2 -385 -3 -385 -327 -189 -328 -189 -327 189 -328
189 -3 385 -2 385 322 186 c178 103 329 187 336 188 7 0 159 -84 338 -187z
m-809 -1395 l333 -192 -2 -384 -3 -384 -320 -185 c-176 -102 -327 -187 -335
-189 -8 -3 -161 80 -340 184 l-325 188 -3 386 -2 386 327 190 c181 105 330
191 332 191 3 1 155 -85 338 -191z m1612 1 l331 -191 -2 -386 -3 -386 -325
-188 c-179 -104 -332 -187 -340 -184 -8 2 -159 87 -335 189 l-320 185 -3 384
-2 384 332 192 c183 105 334 192 335 192 0 0 150 -86 332 -191z"/>
</g>
</svg>
